<?xml version="1.0" standalone="no"?><!DOCTYPE svg PUBLIC "-//W3C//DTD SVG 1.1//EN" "http://www.w3.org/Graphics/SVG/1.1/DTD/svg11.dtd"><svg t="1775487345101" class="icon" viewBox="0 0 1365 1024" version="1.1" xmlns="http://www.w3.org/2000/svg" p-id="4953" xmlns:xlink="http://www.w3.org/1999/xlink" width="266.6015625" height="200"><path d="M1080.888889 1024h-455.111111a56.888889 56.888889 0 0 1 0-113.777778h455.111111a170.666667 170.666667 0 0 0 38.684444-336.213333A56.888889 56.888889 0 0 1 1076.337778 512 341.333333 341.333333 0 0 0 739.555556 113.777778a341.333333 341.333333 0 0 0-327.111112 244.053333 56.888889 56.888889 0 0 1-52.337777 40.391111 256 256 0 0 0 9.671111 512 56.888889 56.888889 0 0 1 0 113.777778 369.777778 369.777778 0 0 1-53.475556-735.573333A455.111111 455.111111 0 0 1 1194.666667 455.111111v23.893333A284.444444 284.444444 0 0 1 1080.888889 1024z" fill="#3E2AD1" p-id="4954"></path></svg>